<svg xmlns="http://www.w3.org/2000/svg" viewBox="0 0 1440 320">
    <path fill="#00cba9" fill-opacity="1" d="M0,64L20,90.7C40,117,80,171,120,186.7C160,203,200,181,240,154.7C280,128,320,96,360,117.3C400,139,440,213,480,234.7C520,256,560,224,600,218.7C640,213,680,235,720,218.7C760,203,800,149,840,128C880,107,920,117,960,106.7C1000,96,1040,64,1080,96C1120,128,1160,224,1200,229.3C1240,235,1280,149,1320,128C1360,107,1400,149,1420,170.7L1440,192L1440,0L1420,0C1400,0,1360,0,1320,0C1280,0,1240,0,1200,0C1160,0,1120,0,1080,0C1040,0,1000,0,960,0C920,0,880,0,840,0C800,0,760,0,720,0C680,0,640,0,600,0C560,0,520,0,480,0C440,0,400,0,360,0C320,0,280,0,240,0C200,0,160,0,120,0C80,0,40,0,20,0L0,0Z"></path>
  </svg>